          <svg xmlns="http://www.w3.org/2000/svg" viewBox="0 0 61.95000076293945 62.83000183105469">
            <path fill="#ff7f00" d="M35.89 14.58l4.72-4.8 21.34 21.63-30.98 31.42-12.13-12.31 4.66-4.85 4.73 4.8 2.74 2.77L52.5 31.41 40.62 19.37l-4.73-4.79z"/>
            <path fill="#333" d="M23.5 45.67l16.6-17.25 4.85 4.66-16.72 17.39-4.73-4.8zM21.19 29.52l14.7-14.94 4.73 4.79-14.63 14.86-4.8-4.71z"/>
            <path fill="#ff7f00" d="M33.28 11.93l-2.31-2.34L9.45 31.41l10.8 10.96-4.8 4.72L0 31.41 30.97 0l7.11 7.21-4.8 4.72z"/>
          </svg>
