<?xml version="1.0" encoding="UTF-8"?>
<svg version="1.1" xmlns="http://www.w3.org/2000/svg" width="438" height="127">
<path d="M0 0 C144.54 0 289.08 0 438 0 C438 41.91 438 83.82 438 127 C293.46 127 148.92 127 0 127 C0 85.09 0 43.18 0 0 Z " fill="#FEFEFD" transform="translate(0,0)"/>
<path d="M0 0 C9.6751249 -0.06958365 19.35016333 -0.12285368 29.02548409 -0.15543652 C33.51838154 -0.17107653 38.01110749 -0.19228433 42.50390625 -0.22631836 C46.84164994 -0.25897129 51.1792289 -0.27686553 55.51708603 -0.28463173 C57.17005887 -0.2901646 58.82302294 -0.30096901 60.47592545 -0.31719017 C62.79550746 -0.33904371 65.11441324 -0.34196368 67.43408203 -0.34057617 C68.75312531 -0.34723801 70.07216858 -0.35389984 71.43118286 -0.36076355 C76.82461136 0.18444578 79.97156041 1.99441462 83.8125 5.75 C86.81176826 10.2060557 87.24203379 13.94271275 86.6171875 19.25390625 C83.34602601 33.83639983 79.82880485 48.04019979 67 57 C61.89788336 59.45177856 57.63413419 60.05053683 52 60 C52.7724707 61.30988892 52.7724707 61.30988892 53.56054688 62.64624023 C55.46361769 65.87460763 57.36383773 69.10464502 59.26318359 72.33520508 C60.08694552 73.73540522 60.91148856 75.13514612 61.73681641 76.53442383 C62.92033367 78.54128834 64.10106752 80.5497668 65.28125 82.55859375 C65.83903137 83.50236122 65.83903137 83.50236122 66.40808105 84.4651947 C69 88.88612829 69 88.88612829 69 90 C58.44 90 47.88 90 37 90 C34.69 85.42125 32.38 80.8425 30 76.125 C29.26910156 74.68141113 28.53820312 73.23782227 27.78515625 71.75048828 C27.21667969 70.61853027 26.64820313 69.48657227 26.0625 68.3203125 C25.47597656 67.15773926 24.88945312 65.99516602 24.28515625 64.79736328 C23 62 23 62 23 60 C18.38 60 13.76 60 9 60 C8.4121875 62.97 8.4121875 62.97 7.8125 66 C6.06884192 74.19854615 3.58775517 82.02691651 1 90 C-8.24 90 -17.48 90 -27 90 C-23.61904762 76.47619048 -23.61904762 76.47619048 -21.94921875 70.71484375 C-21.58304443 69.450354 -21.21687012 68.18586426 -20.83959961 66.88305664 C-20.45576858 65.56781207 -20.07173195 64.2526275 -19.6875 62.9375 C-19.39360886 61.92742386 -19.39360886 61.92742386 -19.09378052 60.89694214 C-15.88680594 49.87899815 -12.52039013 38.92223605 -9 28 C-0.09 28 8.82 28 18 28 C17.34 31.63 16.68 35.26 16 39 C28.21 38.67 40.42 38.34 53 38 C54.65 32.39 56.3 26.78 58 21 C36.88 21 15.76 21 -6 21 C-5.36773375 16.57413625 -4.83684449 12.96567455 -3.5625 8.8125 C-3.31628906 7.99394531 -3.07007813 7.17539062 -2.81640625 6.33203125 C-2.03614884 4.10325768 -1.07408471 2.09870681 0 0 Z " fill="#D0BA61" transform="translate(224,14)"/>
<path d="M0 0 C1.35660072 -0.00270215 2.71319953 -0.00659055 4.0697937 -0.01159668 C6.89551462 -0.01745395 9.72072564 -0.00905003 12.54638672 0.00976562 C16.14862527 0.03259815 19.74967414 0.01938266 23.35186958 -0.00452423 C26.14709274 -0.01904818 28.94203838 -0.01434716 31.73727036 -0.00401306 C33.70466649 -0.00009039 35.67207391 -0.01212522 37.63943481 -0.02453613 C44.79522869 0.05012825 49.71073055 0.55754202 55.7421875 4.53125 C59.6438235 8.94123652 60.08519311 12.97213797 59.99169922 18.71728516 C59.54749789 23.72693731 58.0597092 28.37663785 56.5546875 33.15625 C56.23878662 34.19716797 55.92288574 35.23808594 55.59741211 36.31054688 C54.65960538 39.38862271 53.70317856 42.46034516 52.7421875 45.53125 C52.21557388 47.23680267 51.6894833 48.94251698 51.1640625 50.6484375 C50.04285501 54.2826672 48.89260271 57.90569903 47.7421875 61.53125 C38.8321875 61.53125 29.9221875 61.53125 20.7421875 61.53125 C21.43991942 55.94939462 22.12408768 51.71975169 23.7734375 46.51171875 C23.96941528 45.88646805 24.16539307 45.26121735 24.36730957 44.61701965 C24.98586645 42.64884074 25.61384734 40.68382458 26.2421875 38.71875 C26.66338514 37.38366047 27.08396308 36.04837527 27.50390625 34.71289062 C28.89106071 30.31051167 30.28253236 25.91021543 31.7421875 21.53125 C18.5421875 21.53125 5.3421875 21.53125 -8.2578125 21.53125 C-8.5878125 23.51125 -8.9178125 25.49125 -9.2578125 27.53125 C-10.79361378 33.23565474 -12.56025982 38.87274108 -14.2578125 44.53125 C-16.5678125 52.45125 -18.8778125 60.37125 -21.2578125 68.53125 C0.8521875 68.53125 22.9621875 68.53125 45.7421875 68.53125 C42.98559006 76.80104233 38.9878696 82.64159851 31.7421875 87.53125 C24.50312019 91.00010429 17.83801821 90.9832265 9.8984375 90.96484375 C8.5613987 90.9694144 7.22436223 90.97472258 5.8873291 90.98072815 C3.0968262 90.98962032 0.3066101 90.98728039 -2.48388672 90.97729492 C-6.04130567 90.9657987 -9.59773287 90.98604497 -13.15502167 91.01521206 C-15.91247735 91.03364767 -18.66969841 91.03326733 -21.42720032 91.02757454 C-23.37024141 91.02734884 -25.31326074 91.04417104 -27.25622559 91.06138611 C-34.39893838 91.00530711 -39.2152371 90.44519089 -45.2578125 86.53125 C-49.35647113 82.22240375 -50.56644157 78.80888673 -50.48095703 72.84667969 C-50.05610535 68.43826248 -48.57848091 64.34354075 -47.1953125 60.15625 C-45.12985971 53.69372232 -43.14121369 47.23865608 -41.4453125 40.66796875 C-41.00457397 38.96036377 -41.00457397 38.96036377 -40.55493164 37.21826172 C-39.99912538 35.0363946 -39.45333883 32.85193976 -38.91967773 30.66455078 C-36.42933956 20.95692194 -33.17564609 10.01914759 -24.2578125 4.53125 C-16.25197687 0.32926849 -8.92299493 -0.05646798 0 0 Z " fill="#CDB160" transform="translate(361.2578125,13.46875)"/>
<path d="M0 0 C0.88783676 -0.0065712 1.77567352 -0.0131424 2.69041443 -0.01991272 C5.64297561 -0.03970124 8.59548575 -0.05132215 11.5480957 -0.0612793 C13.05798034 -0.06739259 13.05798034 -0.06739259 14.59836769 -0.07362938 C19.92853213 -0.0945163 25.25867063 -0.10880522 30.58886719 -0.11816406 C36.09591734 -0.12921893 41.60256235 -0.16360083 47.10946941 -0.20333576 C51.34142304 -0.22948553 55.57328007 -0.23785458 59.80530739 -0.24144554 C61.83507834 -0.2463177 63.8648448 -0.25794953 65.89453697 -0.27648354 C68.73861046 -0.30083423 71.5816354 -0.29991703 74.42578125 -0.29296875 C75.26290649 -0.30577881 76.10003174 -0.31858887 76.96252441 -0.33178711 C83.21881129 -0.27615613 86.58200148 1.63012654 91.34887695 5.73950195 C94.80063797 9.91794949 93.91996586 16.11188476 93.53637695 21.17700195 C92.70946581 25.40577134 91.5310963 29.49168664 90.28637695 33.61450195 C89.98602539 34.65670898 89.68567383 35.69891602 89.3762207 36.77270508 C87.87327093 41.9307008 86.26074799 47.03690879 84.52856445 52.12231445 C82.36139552 58.54544549 80.621624 65.0572937 78.91137695 71.61450195 C78.31790485 73.88478855 77.72165544 76.15435139 77.12231445 78.4230957 C76.86498535 79.40979248 76.60765625 80.39648926 76.3425293 81.41308594 C75.53637695 84.17700195 75.53637695 84.17700195 73.53637695 89.17700195 C64.29637695 89.17700195 55.05637695 89.17700195 45.53637695 89.17700195 C58.10780552 43.46271624 58.10780552 43.46271624 65.53637695 21.17700195 C61.24637695 21.17700195 56.95637695 21.17700195 52.53637695 21.17700195 C52.27985352 22.58852539 52.02333008 24.00004883 51.7590332 25.4543457 C50.57532074 31.36048059 48.81222644 37.00949971 46.97387695 42.73950195 C43.57609924 53.53047422 40.4893603 64.38240403 37.53637695 75.30200195 C37.23447952 76.41818405 37.23447952 76.41818405 36.92648315 77.55691528 C35.79058808 81.76207325 34.66262094 85.96922929 33.53637695 90.17700195 C24.29637695 90.17700195 15.05637695 90.17700195 5.53637695 90.17700195 C7.78672107 78.92528138 7.78672107 78.92528138 9.2355957 74.1027832 C9.71391846 72.49947144 9.71391846 72.49947144 10.2019043 70.86376953 C10.53915527 69.75026123 10.87640625 68.63675293 11.22387695 67.48950195 C11.57401855 66.31991943 11.92416016 65.15033691 12.28491211 63.9453125 C14.02246601 58.15281365 15.78135335 52.36690728 17.5480957 46.58325195 C17.86238525 45.55417725 18.1766748 44.52510254 18.50048828 43.46484375 C19.09024592 41.53844966 19.6823776 39.6127801 20.27734375 37.68798828 C20.54587158 36.81424561 20.81439941 35.94050293 21.09106445 35.0402832 C21.32293457 34.29045166 21.55480469 33.54062012 21.79370117 32.76806641 C22.7985228 29.26242146 23.65189595 25.71492597 24.53637695 22.17700195 C4.73637695 21.68200195 4.73637695 21.68200195 -15.46362305 21.17700195 C-9.69646988 0.03077366 -9.69646988 0.03077366 0 0 Z " fill="#C6BE67" transform="translate(49.463623046875,13.822998046875)"/>
<path d="M0 0 C1.03688965 0.01047363 2.0737793 0.02094727 3.14208984 0.03173828 C4.26357422 0.03818359 5.38505859 0.04462891 6.54052734 0.05126953 C7.71615234 0.06802734 8.89177734 0.08478516 10.10302734 0.10205078 C11.28638672 0.11107422 12.46974609 0.12009766 13.68896484 0.12939453 C16.61885257 0.15302266 19.54834075 0.18596564 22.47802734 0.22705078 C20.53668404 15.16778111 15.66993632 29.6640262 11.41015625 44.07177734 C9.8816579 49.24577228 8.36620458 54.42355747 6.85302734 59.60205078 C6.56371338 60.59019775 6.27439941 61.57834473 5.97631836 62.59643555 C3.90423167 69.69744655 1.90303222 76.816079 -0.01269531 83.9609375 C-1.41513407 89.12021219 -1.41513407 89.12021219 -2.52197266 90.22705078 C-4.52162248 90.31463081 -6.52433375 90.33401654 -8.52587891 90.32470703 C-10.34829102 90.31987305 -10.34829102 90.31987305 -12.20751953 90.31494141 C-13.48691406 90.3065625 -14.76630859 90.29818359 -16.08447266 90.28955078 C-17.36773437 90.28503906 -18.65099609 90.28052734 -19.97314453 90.27587891 C-23.15613288 90.26404624 -26.33903028 90.24756146 -29.52197266 90.22705078 C-28.84332108 83.91647247 -27.14665495 78.04810309 -25.33447266 71.97705078 C-25.02203613 70.91655518 -24.70959961 69.85605957 -24.38769531 68.76342773 C-22.24098471 61.51868745 -19.9777394 54.31628681 -17.65869141 47.12524414 C-15.61731683 40.71645293 -13.87911384 34.24509396 -12.2578125 27.71801758 C-11.16243163 23.37326148 -9.83117356 19.24390126 -8.20678711 15.06860352 C-6.93288421 11.64291738 -6.14161211 8.09089897 -5.26806641 4.54736328 C-4.23089546 1.32181595 -3.42614649 0.30845269 0 0 Z " fill="#D3B35D" transform="translate(173.52197265625,13.77294921875)"/>
<path d="M0 0 C2.52197266 -0.34057617 2.52197266 -0.34057617 5.6640625 -0.29296875 C6.78554688 -0.28330078 7.90703125 -0.27363281 9.0625 -0.26367188 C10.238125 -0.23853516 11.41375 -0.21339844 12.625 -0.1875 C13.80835938 -0.17396484 14.99171875 -0.16042969 16.2109375 -0.14648438 C19.14107539 -0.11103916 22.07031459 -0.06162769 25 0 C24.355837 6.87933053 22.71901052 13.28879272 20.875 19.9375 C20.56731689 21.060354 20.25963379 22.18320801 19.94262695 23.34008789 C19.29560313 25.69620028 18.64589904 28.05157811 17.99365234 30.40625 C17.00355457 33.98714415 16.02628598 37.57135629 15.05078125 41.15625 C14.43031523 43.41683905 13.8092435 45.67726197 13.1875 47.9375 C12.89794434 49.00282959 12.60838867 50.06815918 12.31005859 51.16577148 C12.03629395 52.15134033 11.7625293 53.13690918 11.48046875 54.15234375 C11.24223389 55.01851318 11.00399902 55.88468262 10.75854492 56.77709961 C10 59 10 59 8 62 C5.29443359 62.34057617 5.29443359 62.34057617 1.8984375 62.29296875 C0.08085938 62.2784668 0.08085938 62.2784668 -1.7734375 62.26367188 C-3.04445313 62.23853516 -4.31546875 62.21339844 -5.625 62.1875 C-6.90375 62.17396484 -8.1825 62.16042969 -9.5 62.14648438 C-12.66708282 62.11103196 -15.83333541 62.06161441 -19 62 C-17.85710332 55.75784048 -16.43766406 49.76975098 -14.4375 43.75 C-12.43509871 37.591138 -10.51193078 31.4136485 -8.67578125 25.203125 C-8.47564926 24.52771667 -8.27551727 23.85230835 -8.06932068 23.15643311 C-7.26103551 20.42657695 -6.45345566 17.69656604 -5.65524292 14.96374512 C-5.09226156 13.03704151 -4.52281266 11.11223135 -3.953125 9.1875 C-3.62473633 8.06730469 -3.29634766 6.94710937 -2.95800781 5.79296875 C-2 3 -2 3 0 0 Z " fill="#EF9A47" transform="translate(33,42)"/>
</svg>
